{
	"asset":{
		"generator":"Khronos glTF Blender I/O v3.5.30",
		"version":"2.0"
	},
	"extensionsUsed":[
		"KHR_materials_specular",
		"KHR_materials_ior"
	],
	"scene":0,
	"scenes":[
		{
			"name":"Scene",
			"nodes":[
				0,
				1
			]
		}
	],
	"nodes":[
		{
			"mesh":0,
			"name":"TQ_ARD-node",
			"translation":[
				0,
				0.06165638193488121,
				0
			]
		},
		{
			"mesh":1,
			"name":"TQ_ARD-node.001",
			"translation":[
				0.35340243577957153,
				0.06165638193488121,
				-0.005348429083824158
			]
		}
	],
	"materials":[
		{
			"doubleSided":true,
			"extensions":{
				"KHR_materials_specular":{
					"specularColorFactor":[
						0,
						0,
						0
					]
				},
				"KHR_materials_ior":{
					"ior":0
				}
			},
			"name":"TQ_ARD_front",
			"pbrMetallicRoughness":{
				"baseColorTexture":{
					"index":0
				},
				"metallicFactor":0,
				"roughnessFactor":0.5
			}
		},
		{
			"doubleSided":true,
			"extensions":{
				"KHR_materials_specular":{
					"specularColorFactor":[
						0,
						0,
						0
					]
				},
				"KHR_materials_ior":{
					"ior":0
				}
			},
			"name":"TQ_ARD_back",
			"pbrMetallicRoughness":{
				"baseColorFactor":[
					0.996078372001648,
					0.9019607901573181,
					0.6627451181411743,
					1
				],
				"metallicFactor":0,
				"roughnessFactor":0.5
			}
		},
		{
			"doubleSided":true,
			"extensions":{
				"KHR_materials_specular":{
					"specularColorFactor":[
						0,
						0,
						0
					]
				},
				"KHR_materials_ior":{
					"ior":0
				}
			},
			"name":"TQ_ARD_edge",
			"pbrMetallicRoughness":{
				"baseColorTexture":{
					"index":1
				},
				"metallicFactor":0,
				"roughnessFactor":0.5
			}
		},
		{
			"doubleSided":true,
			"extensions":{
				"KHR_materials_specular":{
					"specularColorFactor":[
						0,
						0,
						0
					]
				},
				"KHR_materials_ior":{
					"ior":0
				}
			},
			"name":"TQ_ARD_front.001",
			"pbrMetallicRoughness":{
				"baseColorTexture":{
					"index":2
				},
				"metallicFactor":0,
				"roughnessFactor":0.5
			}
		},
		{
			"doubleSided":true,
			"extensions":{
				"KHR_materials_specular":{
					"specularColorFactor":[
						0,
						0,
						0
					]
				},
				"KHR_materials_ior":{
					"ior":0
				}
			},
			"name":"TQ_ARD_back.001",
			"pbrMetallicRoughness":{
				"baseColorFactor":[
					0.996078372001648,
					0.9019607901573181,
					0.6627451181411743,
					1
				],
				"metallicFactor":0,
				"roughnessFactor":0.5
			}
		},
		{
			"doubleSided":true,
			"extensions":{
				"KHR_materials_specular":{
					"specularColorFactor":[
						0,
						0,
						0
					]
				},
				"KHR_materials_ior":{
					"ior":0
				}
			},
			"name":"TQ_ARD_edge.001",
			"pbrMetallicRoughness":{
				"baseColorTexture":{
					"index":3
				},
				"metallicFactor":0,
				"roughnessFactor":0.5
			}
		}
	],
	"meshes":[
		{
			"name":"TQ_ARD-geom",
			"primitives":[
				{
					"attributes":{
						"POSITION":0,
						"TEXCOORD_0":1,
						"NORMAL":2
					},
					"indices":3,
					"material":0
				},
				{
					"attributes":{
						"POSITION":4,
						"TEXCOORD_0":5,
						"NORMAL":6
					},
					"indices":7,
					"material":1
				},
				{
					"attributes":{
						"POSITION":8,
						"TEXCOORD_0":9,
						"NORMAL":10
					},
					"indices":11,
					"material":2
				}
			]
		},
		{
			"name":"TQ_ARD-geom.001",
			"primitives":[
				{
					"attributes":{
						"POSITION":12,
						"TEXCOORD_0":13,
						"NORMAL":14
					},
					"indices":15,
					"material":3
				},
				{
					"attributes":{
						"POSITION":16,
						"TEXCOORD_0":17,
						"NORMAL":18
					},
					"indices":19,
					"material":4
				},
				{
					"attributes":{
						"POSITION":20,
						"TEXCOORD_0":21,
						"NORMAL":22
					},
					"indices":23,
					"material":5
				}
			]
		}
	],
	"textures":[
		{
			"sampler":0,
			"source":0
		},
		{
			"sampler":0,
			"source":1
		},
		{
			"sampler":0,
			"source":0
		},
		{
			"sampler":0,
			"source":1
		}
	],
	"images":[
		{
			"bufferView":4,
			"mimeType":"image/jpeg",
			"name":"1"
		},
		{
			"bufferView":13,
			"mimeType":"image/png",
			"name":"TQ_ARD-I1"
		}
	],
	"accessors":[
		{
			"bufferView":0,
			"componentType":5126,
			"count":1096,
			"max":[
				-0.11774161458015442,
				0.3539682626724243,
				0.0007937500486150384
			],
			"min":[
				-0.290331095457077,
				-0.05661924183368683,
				-0.06689150631427765
			],
			"type":"VEC3"
		},
		{
			"bufferView":1,
			"componentType":5126,
			"count":1096,
			"type":"VEC2"
		},
		{
			"bufferView":2,
			"componentType":5126,
			"count":1096,
			"type":"VEC3"
		},
		{
			"bufferView":3,
			"componentType":5123,
			"count":3234,
			"type":"SCALAR"
		},
		{
			"bufferView":5,
			"componentType":5126,
			"count":982,
			"max":[
				-0.1185353472828865,
				0.35317447781562805,
				-0.00015498072025366127
			],
			"min":[
				-0.28953734040260315,
				-0.05582549422979355,
				-0.06590020656585693
			],
			"type":"VEC3"
		},
		{
			"bufferView":6,
			"componentType":5126,
			"count":982,
			"type":"VEC2"
		},
		{
			"bufferView":7,
			"componentType":5126,
			"count":982,
			"type":"VEC3"
		},
		{
			"bufferView":8,
			"componentType":5123,
			"count":3234,
			"type":"SCALAR"
		},
		{
			"bufferView":9,
			"componentType":5126,
			"count":1719,
			"max":[
				-0.11820656806230545,
				0.3539682626724243,
				0.0007937500486150384
			],
			"min":[
				-0.29033103585243225,
				-0.05661924183368683,
				-0.06689150631427765
			],
			"type":"VEC3"
		},
		{
			"bufferView":10,
			"componentType":5126,
			"count":1719,
			"type":"VEC2"
		},
		{
			"bufferView":11,
			"componentType":5126,
			"count":1719,
			"type":"VEC3"
		},
		{
			"bufferView":12,
			"componentType":5123,
			"count":3768,
			"type":"SCALAR"
		},
		{
			"bufferView":14,
			"componentType":5126,
			"count":1106,
			"max":[
				-0.057905904948711395,
				0.4219732880592346,
				0.03193376958370209
			],
			"min":[
				-0.35016679763793945,
				-0.05661924183368683,
				-0.11960485577583313
			],
			"type":"VEC3"
		},
		{
			"bufferView":15,
			"componentType":5126,
			"count":1106,
			"type":"VEC2"
		},
		{
			"bufferView":16,
			"componentType":5126,
			"count":1106,
			"type":"VEC3"
		},
		{
			"bufferView":17,
			"componentType":5123,
			"count":3234,
			"type":"SCALAR"
		},
		{
			"bufferView":18,
			"componentType":5126,
			"count":1030,
			"max":[
				-0.058316778391599655,
				0.42059844732284546,
				0.030928779393434525
			],
			"min":[
				-0.3497558832168579,
				-0.05582549422979355,
				-0.1188841462135315
			],
			"type":"VEC3"
		},
		{
			"bufferView":19,
			"componentType":5126,
			"count":1030,
			"type":"VEC2"
		},
		{
			"bufferView":20,
			"componentType":5126,
			"count":1030,
			"type":"VEC3"
		},
		{
			"bufferView":21,
			"componentType":5123,
			"count":3234,
			"type":"SCALAR"
		},
		{
			"bufferView":22,
			"componentType":5126,
			"count":1730,
			"max":[
				-0.057905904948711395,
				0.4219732880592346,
				0.03193376958370209
			],
			"min":[
				-0.35016679763793945,
				-0.05661924183368683,
				-0.11960485577583313
			],
			"type":"VEC3"
		},
		{
			"bufferView":23,
			"componentType":5126,
			"count":1730,
			"type":"VEC2"
		},
		{
			"bufferView":24,
			"componentType":5126,
			"count":1730,
			"type":"VEC3"
		},
		{
			"bufferView":25,
			"componentType":5123,
			"count":3768,
			"type":"SCALAR"
		}
	],
	"bufferViews":[
		{
			"buffer":0,
			"byteLength":13152,
			"byteOffset":0,
			"target":34962
		},
		{
			"buffer":0,
			"byteLength":8768,
			"byteOffset":13152,
			"target":34962
		},
		{
			"buffer":0,
			"byteLength":13152,
			"byteOffset":21920,
			"target":34962
		},
		{
			"buffer":0,
			"byteLength":6468,
			"byteOffset":35072,
			"target":34963
		},
		{
			"buffer":0,
			"byteLength":374274,
			"byteOffset":41540
		},
		{
			"buffer":0,
			"byteLength":11784,
			"byteOffset":415816,
			"target":34962
		},
		{
			"buffer":0,
			"byteLength":7856,
			"byteOffset":427600,
			"target":34962
		},
		{
			"buffer":0,
			"byteLength":11784,
			"byteOffset":435456,
			"target":34962
		},
		{
			"buffer":0,
			"byteLength":6468,
			"byteOffset":447240,
			"target":34963
		},
		{
			"buffer":0,
			"byteLength":20628,
			"byteOffset":453708,
			"target":34962
		},
		{
			"buffer":0,
			"byteLength":13752,
			"byteOffset":474336,
			"target":34962
		},
		{
			"buffer":0,
			"byteLength":20628,
			"byteOffset":488088,
			"target":34962
		},
		{
			"buffer":0,
			"byteLength":7536,
			"byteOffset":508716,
			"target":34963
		},
		{
			"buffer":0,
			"byteLength":767,
			"byteOffset":516252
		},
		{
			"buffer":0,
			"byteLength":13272,
			"byteOffset":517020,
			"target":34962
		},
		{
			"buffer":0,
			"byteLength":8848,
			"byteOffset":530292,
			"target":34962
		},
		{
			"buffer":0,
			"byteLength":13272,
			"byteOffset":539140,
			"target":34962
		},
		{
			"buffer":0,
			"byteLength":6468,
			"byteOffset":552412,
			"target":34963
		},
		{
			"buffer":0,
			"byteLength":12360,
			"byteOffset":558880,
			"target":34962
		},
		{
			"buffer":0,
			"byteLength":8240,
			"byteOffset":571240,
			"target":34962
		},
		{
			"buffer":0,
			"byteLength":12360,
			"byteOffset":579480,
			"target":34962
		},
		{
			"buffer":0,
			"byteLength":6468,
			"byteOffset":591840,
			"target":34963
		},
		{
			"buffer":0,
			"byteLength":20760,
			"byteOffset":598308,
			"target":34962
		},
		{
			"buffer":0,
			"byteLength":13840,
			"byteOffset":619068,
			"target":34962
		},
		{
			"buffer":0,
			"byteLength":20760,
			"byteOffset":632908,
			"target":34962
		},
		{
			"buffer":0,
			"byteLength":7536,
			"byteOffset":653668,
			"target":34963
		}
	],
	"samplers":[
		{
			"magFilter":9729,
			"minFilter":9987
		}
	],
	"buffers":[
		{
			"byteLength":661204,
			"uri":"data:application/octet-stream;base64,"
		}
	]
}
